<svg
    xmlns="http://www.w3.org/2000/svg"
    viewBox="0 0 482 482"
    id="vector">
    <g id="group">
        <path
            id="path"
            d="M 83.127 344.477 C 137.729 345.54 185.046 353.705 219.964 368.09 C 220.56 368.334 221.191 368.456 221.816 368.456 C 222.766 368.456 223.711 368.177 224.522 367.634 C 225.871 366.732 226.68 365.216 226.68 363.593 L 226.699 102.576 C 226.699 100.584 225.484 98.793 223.633 98.057 L 85.019 42.899 C 83.523 42.303 81.826 42.488 80.492 43.393 C 79.158 44.299 78.359 45.806 78.359 47.418 L 78.359 339.615 C 78.359 342.264 80.479 344.425 83.127 344.477 Z"
            fill="#000000"
            stroke-width="1"/>
        <path
            id="path_1"
            d="M 480.244 89.256 C 479.013 88.339 477.42 88.058 475.947 88.497 L 426.922 103.154 C 424.862 103.77 423.451 105.664 423.451 107.813 L 423.451 359.964 C 423.451 359.964 423.669 363.942 419.481 363.942 L 411.535 363.942 C 371.986 363.942 298.49 368.047 250.605 395.542 L 241.101 400.984 L 231.598 395.542 C 183.712 368.048 110.217 363.942 70.668 363.942 L 60.526 363.942 C 58.635 363.942 58.751 361.67 58.751 361.671 L 58.751 107.813 C 58.751 105.664 57.34 103.77 55.281 103.154 L 6.256 88.497 C 4.783 88.058 3.19 88.339 1.958 89.256 C 0.726 90.173 0 91.619 0 93.155 L 0 398.224 C 0 399.596 0.581 400.905 1.597 401.828 C 2.614 402.749 3.972 403.2 5.338 403.064 C 19.909 401.635 42.689 399.933 68.462 399.933 C 125.068 399.933 170.559 408.199 200.038 423.846 C 204.369 426.118 229.479 439.649 241.103 439.649 C 252.727 439.649 277.836 426.119 282.166 423.846 C 311.646 408.199 357.137 399.933 413.743 399.933 C 439.514 399.933 462.296 401.635 476.866 403.064 C 478.233 403.2 479.591 402.749 480.608 401.828 C 481.624 400.905 482.204 399.597 482.204 398.224 L 482.204 93.155 C 482.203 91.619 481.476 90.173 480.244 89.256 Z"
            fill="#000000"
            stroke-width="1"/>
        <path
            id="path_2"
            d="M 257.679 367.634 C 258.491 368.177 259.436 368.456 260.385 368.456 C 261.011 368.456 261.641 368.334 262.238 368.09 C 297.155 353.704 344.473 345.539 399.075 344.477 C 401.723 344.425 403.844 342.264 403.844 339.616 L 403.844 47.418 C 403.844 45.805 403.045 44.298 401.711 43.393 C 400.377 42.489 398.68 42.303 397.183 42.899 L 258.569 98.057 C 256.718 98.793 255.504 100.584 255.504 102.576 L 255.523 363.593 C 255.521 365.216 256.331 366.732 257.679 367.634 Z"
            fill="#000000"
            stroke-width="1"/>
    </g>
</svg>
